<?xml version="1.0" encoding="utf-8"?>
<!-- Generator: Adobe Illustrator 24.0.0, SVG Export Plug-In . SVG Version: 6.00 Build 0)  -->
<svg version="1.1" id="Capa_1" xmlns="http://www.w3.org/2000/svg" xmlns:xlink="http://www.w3.org/1999/xlink" x="0px" y="0px"
	 viewBox="0 0 565.18 274.91" style="enable-background:new 0 0 565.18 274.91;" xml:space="preserve">
<style type="text/css">
	.st0{fill:none;stroke:#707070;stroke-width:3;stroke-linecap:round;}
	.st1{fill:#3D4975;}
	.st2{fill:#485996;}
	.st3{fill:#3F4F89;}
	.st4{fill:none;stroke:#3D4975;stroke-width:2;}
</style>
<g id="Grupo_68" transform="translate(-684.405 -290.661)">
	<g id="Grupo_48" transform="translate(685.939 301.161)">
		<path id="Trazado_15" class="st0" d="M423.7,152.56c0,0,147.72,32.73,6.47,77.49"/>
		<path id="Trazado_16" class="st0" d="M497.78,151.84c0,0,143.39,44.24,2.15,89"/>
		<path id="Trazado_17" class="st0" d="M82.02,246.08c0,0,70.28,18.88,84.3,16.65"/>
		<path id="Trazado_18" class="st0" d="M56.95,149.89c0,0,50.18-23.53,95.96-19.33"/>
		<path id="Trazado_19" class="st0" d="M108.3,153.9c0,0-137.65,28.66-23.47,67.05"/>
		<path id="Trazado_20" class="st0" d="M32.63,157.39c0,0-82.16,42.33,14.12,79.49"/>
		<g id="Grupo_34" transform="translate(56.86)">
			<g id="Grupo_33" transform="translate(0 0)">
				<g transform="matrix(1, 0, 0, 1, -58.39, -10.5)">
					<path id="Trazado_10-2" class="st1" d="M58.6,91.44L276,109.3l210.85-17.6L366.1,198.5l-189.78-6.68L58.6,91.44z"/>
				</g>
				<g transform="matrix(1, 0, 0, 1, -58.39, -10.5)">
					<path id="Trazado_12-2" class="st2" d="M272.86,0l104.13,179.85H174.81L272.86,0z"/>
				</g>
				<g transform="matrix(1, 0, 0, 1, -58.39, -10.5)">
					<path id="Trazado_9-2" class="st3" d="M58.36,91.37l214.15,47.43l214.83-47.43L398,216.47H152.22L58.36,91.37z"/>
				</g>
				<g transform="matrix(1, 0, 0, 1, -58.39, -10.5)">
					<path id="Trazado_11-2" class="st1" d="M272.77,138.82l120.15,77.66H151.89L272.77,138.82z"/>
				</g>
			</g>
			<path id="Trazado_14" class="st4" d="M214.46-7.42v148.74"/>
		</g>
		<path id="Trazado_21" class="st0" d="M470.94,239.57c0,0-23.91,14.26-74.84,17.9"/>
	</g>
</g>
</svg>
