<?xml version="1.0" encoding="utf-8"?>
<!-- Generator: Adobe Illustrator 24.0.0, SVG Export Plug-In . SVG Version: 6.00 Build 0)  -->
<svg version="1.1" id="Capa_1" xmlns="http://www.w3.org/2000/svg" xmlns:xlink="http://www.w3.org/1999/xlink" x="0px" y="0px"
	 viewBox="0 0 427.56 315" style="enable-background:new 0 0 427.56 315;" xml:space="preserve">
<style type="text/css">
	.st0{fill:none;stroke:#3D4975;stroke-width:5;stroke-linejoin:round;}
	.st1{fill:none;stroke:#3D4975;stroke-width:7;stroke-linecap:round;stroke-miterlimit:10;}
	.st2{fill:#2CBE8D;stroke:#3E4A74;stroke-width:5;}
</style>
<g id="Grupo_61" transform="translate(-1482.256 -706.388)">
	<g transform="matrix(1, 0, 0, 1, 1482.26, 706.39)">
		<path id="Trazado_50-2" class="st0" d="M179.64,27.98V10.23c0-4.27-3.46-7.73-7.73-7.73H10.23c-4.27,0-7.73,3.46-7.73,7.73v294.53
			c0,4.27,3.46,7.74,7.73,7.74c0,0,0,0,0,0h407.09c4.27,0,7.73-3.46,7.73-7.73c0,0,0,0,0,0V43.45c0-4.27-3.46-7.74-7.73-7.74
			c0,0,0,0,0,0H187.38C183.1,35.71,179.64,32.25,179.64,27.98z"/>
	</g>
	<line id="Línea_22" class="st1" x1="1639.01" y1="847.63" x2="1609.76" y2="876.87"/>
	<line id="Línea_23" class="st1" x1="1609.76" y1="847.63" x2="1639.01" y2="876.87"/>
	<line id="Línea_24" class="st1" x1="1791.08" y1="847.63" x2="1761.84" y2="876.87"/>
	<line id="Línea_25" class="st1" x1="1761.84" y1="847.63" x2="1791.08" y2="876.87"/>
	<path id="Trazado_51" class="st1" d="M1799.86,935.36c0,0-87.74-40.94-187.17,0"/>
	<path id="Trazado_52" class="st1" d="M1782.31,929.51v23.4c0,14.54-11.78,26.32-26.32,26.32c0,0,0,0,0,0l0,0
		c-14.54,0-26.32-11.78-26.32-26.32c0,0,0-0.01,0-0.01v-32.17"/>
	<line id="Línea_26" class="st1" x1="1755.99" y1="923.66" x2="1755.99" y2="952.91"/>
	<path id="Trazado_53" class="st2" d="M1900.41,796.84h-408.9c-3.47,0-6.28-2.82-6.28-6.29c0-0.04,0-0.09,0-0.13l1.54-74.99
		c0.07-3.42,2.86-6.15,6.29-6.15h163.06c3.47,0,6.28,2.81,6.29,6.28c0,0,0,0,0,0v22.03c0,3.47,2.81,6.28,6.28,6.28c0,0,0,0,0,0
		h231.91c3.47,0,6.28,2.81,6.29,6.28c0,0.01,0,0.02,0,0.03l-0.19,40.39C1906.68,794.05,1903.87,796.85,1900.41,796.84z"/>
</g>
</svg>
