<?xml version="1.0" encoding="utf-8"?>
<!-- Generator: Adobe Illustrator 25.0.0, SVG Export Plug-In . SVG Version: 6.00 Build 0)  -->
<svg version="1.1" id="Capa_1" xmlns="http://www.w3.org/2000/svg" xmlns:xlink="http://www.w3.org/1999/xlink" x="0px" y="0px"
	 viewBox="0 0 20 20" style="enable-background:new 0 0 20 20;" xml:space="preserve">
<style type="text/css">
	.st0{fill:#3D4975;}
</style>
<g>
	<path class="st0" d="M8.83,16.5c0.27-0.12,0.54-0.23,0.79-0.36c0.77-0.41,1.38-1,1.83-1.75c0.04-0.08,0.09-0.1,0.18-0.1
		c0.81,0,1.61,0,2.42,0c0.04,0,0.09,0,0.14,0c0-0.14,0-0.27,0-0.41c-0.81,0-1.63,0-2.46,0c0.02-0.06,0.03-0.09,0.04-0.13
		c0.16-0.4,0.27-0.82,0.31-1.25c0.01-0.09,0.05-0.11,0.13-0.11c0.61,0,1.22,0,1.84,0c0.04,0,0.09,0,0.15,0c0-0.12,0.01-0.24,0-0.36
		c0-0.02-0.07-0.06-0.11-0.06c-0.44,0-0.88,0-1.33,0c-0.21,0-0.42,0-0.65,0c0-0.51-0.08-0.99-0.24-1.48c0.3,0,0.57,0,0.85,0
		c0.45,0,0.9,0,1.35,0c0.1,0,0.13-0.03,0.13-0.13c-0.01-0.29,0-0.29-0.29-0.29c-0.7,0-1.39,0-2.09,0c-0.05,0-0.12-0.02-0.14-0.06
		c-0.25-0.52-0.58-0.99-1.01-1.42c1.18,0,2.34,0,3.51,0c0-0.14,0-0.27,0-0.42c-0.05,0-0.1,0-0.14,0c-1.26,0-2.51,0-3.77,0
		c-0.06,0-0.13-0.02-0.18-0.05C9,7.41,7.83,7.14,6.54,7.36c-0.02,0-0.04,0-0.06,0c0-0.03-0.01-0.06-0.01-0.09c0-0.76,0-1.53,0-2.29
		c0-0.74,0.47-1.32,1.18-1.46C7.75,3.51,7.87,3.5,7.98,3.5c1.69,0,3.38,0,5.07,0c0.1,0,0.16,0.03,0.23,0.1
		c0.91,0.91,1.83,1.83,2.74,2.74c0.04,0.04,0.07,0.11,0.07,0.17c0,2.85,0.01,5.69,0,8.54c0,0.84-0.64,1.46-1.49,1.46
		c-1.78,0-3.56,0-5.34,0C9.12,16.5,8.98,16.5,8.83,16.5z M13.01,3.89c-0.01,0.01-0.03,0.02-0.04,0.03c0,0.32,0,0.64,0,0.96
		c0,0.82,0.6,1.43,1.43,1.44c0.31,0,0.61,0,0.92,0c0.02,0,0.05-0.01,0.07-0.01C14.59,5.49,13.8,4.69,13.01,3.89z"/>
	<path class="st0" d="M7.39,7.7c2.41,0.03,4.32,1.96,4.29,4.35c-0.03,2.37-1.97,4.27-4.34,4.25c-2.37-0.03-4.29-1.98-4.25-4.33
		C3.13,9.44,5.16,7.7,7.39,7.7z M7.4,8.5c-1.94,0-3.51,1.56-3.51,3.49c0,1.94,1.56,3.51,3.49,3.51c1.93,0,3.51-1.56,3.51-3.49
		C10.89,10.07,9.32,8.5,7.4,8.5z"/>
	<path class="st0" d="M7.45,12.44c-0.02,0.03-0.04,0.05-0.05,0.07c-0.08,0.09-0.17,0.12-0.28,0.09C7,12.57,6.93,12.48,6.92,12.36
		c0-0.04-0.01-0.08,0-0.11c0.01-0.08-0.02-0.13-0.1-0.17c-0.13-0.06-0.22-0.15-0.2-0.31c0.02-0.13,0.1-0.19,0.3-0.24
		c0-0.04,0-0.09,0-0.14c0-0.56,0-1.11,0-1.67c0-0.16,0.11-0.28,0.26-0.28c0.15,0,0.26,0.12,0.27,0.29c0,0.13,0,0.26,0,0.39
		c0,0.54,0,1.08,0,1.62c0,0.08,0.03,0.11,0.09,0.15c0.56,0.32,1.12,0.64,1.68,0.97c0.03,0.02,0.05,0.03,0.08,0.05
		c0.13,0.09,0.18,0.24,0.11,0.36c-0.07,0.13-0.23,0.17-0.37,0.09c-0.49-0.28-0.98-0.56-1.46-0.84C7.53,12.49,7.49,12.47,7.45,12.44z
		"/>
</g>
</svg>
