<?xml version="1.0" encoding="utf-8"?>
<!-- Generator: Adobe Illustrator 25.0.0, SVG Export Plug-In . SVG Version: 6.00 Build 0)  -->
<svg version="1.1" id="Capa_1" xmlns="http://www.w3.org/2000/svg" xmlns:xlink="http://www.w3.org/1999/xlink" x="0px" y="0px"
	 viewBox="0 0 20 20" style="enable-background:new 0 0 20 20;" xml:space="preserve">
<style type="text/css">
	.st0{fill:none;stroke:#3D4975;stroke-miterlimit:10;}
	.st1{fill:#3D4975;}
</style>
<g>
	<path class="st0" d="M10.1,14.3c1.1,0,2.2,0,3.3,0c1.1,0,1.9-0.7,2.1-1.8c0.2-1-0.4-2-1.4-2.4c-0.2-0.1-0.3-0.1-0.3-0.3
		c-0.2-1.4-0.9-2.3-2.2-2.7c-1.2-0.4-2.4,0.1-3.3,1.2C8.2,8.3,8.1,8.4,8,8.4C7,8.3,6.2,8.7,5.8,9.6c0,0.1-0.1,0.2-0.3,0.3
		c-0.9,0.6-1.3,1.6-1,2.7c0.3,1,1.2,1.6,2.3,1.6C7.9,14.3,9,14.3,10.1,14.3z"/>
	<path class="st1" d="M11.1,13.4c-0.7,0-1.3,0-1.9,0c0-0.6,0-1.2,0-1.9c-0.2,0-0.4,0-0.7,0c0.6-0.6,1.1-1.2,1.6-1.8
		c0.5,0.6,1.1,1.2,1.6,1.8c-0.2,0-0.4,0-0.6,0.1C11.1,12.1,11.1,12.7,11.1,13.4z"/>
</g>
</svg>
