<?xml version="1.0" encoding="utf-8"?>
<!-- Generator: Adobe Illustrator 25.0.0, SVG Export Plug-In . SVG Version: 6.00 Build 0)  -->
<svg version="1.1" id="Capa_1" xmlns="http://www.w3.org/2000/svg" xmlns:xlink="http://www.w3.org/1999/xlink" x="0px" y="0px"
	 viewBox="0 0 20 20" style="enable-background:new 0 0 20 20;" xml:space="preserve">
<style type="text/css">
	.st0{fill:#3D4975;}
</style>
<g>
	<path class="st0" d="M5.13,9.24c0,0.52,0,1.02,0,1.55c0.28,0,0.52,0,0.8,0c0-2.41,0-4.8,0-7.24c0.93,0,1.83,0,2.73,0
		c0.89,0,1.78-0.01,2.66,0.01c0.18,0,0.39,0.08,0.51,0.2c0.69,0.66,1.37,1.33,2.03,2.02c0.11,0.12,0.19,0.32,0.19,0.48
		c0.01,1.5,0.01,2.99,0.01,4.52c0.27,0,0.51,0,0.8,0c0-0.5,0-1.01,0-1.51c0.96-0.22,1.62,0.28,1.63,1.21c0.01,1.55,0.01,3.1,0,4.65
		c0,0.88-0.45,1.32-1.33,1.32c-3.47,0-6.95,0-10.42,0c-0.76,0-1.25-0.51-1.25-1.29c0-1.52,0-3.05,0-4.57C3.5,9.6,4.06,9.1,5.13,9.24
		z M10.79,6.75c0-0.83,0-1.61,0-2.37c-1.37,0-2.7,0-4.02,0c0,2.16,0,4.29,0,6.41c2.17,0,4.31,0,6.45,0c0-1.35,0-2.68,0-4.03
		C12.41,6.75,11.63,6.75,10.79,6.75z M14.86,14.07c-3.26,0-6.48,0-9.71,0c0,0.27,0,0.51,0,0.76c3.25,0,6.48,0,9.71,0
		C14.86,14.56,14.86,14.33,14.86,14.07z M4.32,12.42c0.56,0,1.07,0,1.58,0c0-0.28,0-0.53,0-0.79c-0.54,0-1.05,0-1.58,0
		C4.32,11.9,4.32,12.14,4.32,12.42z"/>
	<path class="st0" d="M7.57,9.98c0-0.26,0-0.49,0-0.76c1.61,0,3.22,0,4.85,0c0,0.25,0,0.49,0,0.76C10.81,9.98,9.21,9.98,7.57,9.98z"
		/>
	<path class="st0" d="M12.43,7.61c0,0.27,0,0.49,0,0.74c-1.62,0-3.23,0-4.85,0c0-0.25,0-0.48,0-0.74C9.2,7.61,10.79,7.61,12.43,7.61
		z"/>
	<path class="st0" d="M7.57,6.73c0-0.26,0-0.48,0-0.74c0.8,0,1.58,0,2.4,0c0,0.23,0,0.47,0,0.74C9.18,6.73,8.4,6.73,7.57,6.73z"/>
</g>
</svg>
