<?xml version="1.0" encoding="utf-8"?>
<!-- Generator: Adobe Illustrator 25.0.0, SVG Export Plug-In . SVG Version: 6.00 Build 0)  -->
<svg version="1.1" id="Capa_1" xmlns="http://www.w3.org/2000/svg" xmlns:xlink="http://www.w3.org/1999/xlink" x="0px" y="0px"
	 viewBox="0 0 37.53 38.83" style="enable-background:new 0 0 37.53 38.83;" xml:space="preserve">
<style type="text/css">
	.st0{fill:none;}
	.st1{fill:#97D5C9;}
	.st2{fill:#5A6E7F;}
	.st3{fill:#5CBFAB;}
</style>
<g>
	<path class="st0" d="M14.97,7.72c-1.45,0.92-2.31,2.53-2.31,4.24v4.66h12.11v-4.7C24.27,7.73,19.51,4.83,14.97,7.72z"/>
	<path class="st1" d="M20.11,30.54v-2.6c0.75-0.47,1.26-1.29,1.26-2.24c0-2-2.24-3.49-4.35-2.09c-0.16,0.1-0.29,0.24-0.39,0.39
		c-1.04,1.59-0.46,3.21,0.72,3.94v2.6H20.11z"/>
	<path class="st2" d="M7.03,38.83h23.41c1.54,0,2.82-1.06,3.19-2.48H3.84C4.2,37.78,5.49,38.83,7.03,38.83z"/>
	<path class="st3" d="M3.73,35.54c0,0.28,0.04,0.55,0.11,0.81h29.79c0.07-0.26,0.11-0.53,0.11-0.81v-0.52h-30V35.54z"/>
	<path class="st2" d="M29.55,12.63c0-7.79-8.27-13.68-16.49-9.35c-3.2,1.68-5.15,5.05-5.15,8.67v4.68H5.79
		c-1.14,0-2.06,0.92-2.06,2.06v16.34h30V18.68c0-1.14-0.92-2.06-2.06-2.06h-2.12h-0.07v-3.99H29.55z M20.11,27.94v2.6h-2.76v-2.6
		c-1.18-0.73-1.76-2.35-0.72-3.94c0.1-0.16,0.24-0.29,0.39-0.39c2.11-1.39,4.35,0.09,4.35,2.09C21.38,26.65,20.87,27.47,20.11,27.94
		z M24.77,16.62H12.66v-4.66c0-1.71,0.86-3.32,2.31-4.24c4.54-2.88,9.31,0.01,9.8,4.2V16.62z"/>
</g>
</svg>
