<?xml version="1.0" encoding="utf-8"?>
<!-- Generator: Adobe Illustrator 25.0.0, SVG Export Plug-In . SVG Version: 6.00 Build 0)  -->
<svg version="1.1" id="Capa_1" xmlns="http://www.w3.org/2000/svg" xmlns:xlink="http://www.w3.org/1999/xlink" x="0px" y="0px"
	 viewBox="0 0 20 20" style="enable-background:new 0 0 20 20;" xml:space="preserve">
<style type="text/css">
	.st0{fill:#3D4975;}
</style>
<path class="st0" d="M10.31,4.1c3.62,0,6.5,2.89,6.5,6.52c0,3.57-2.91,6.47-6.49,6.47c-3.6,0-6.52-2.88-6.51-6.41
	C3.82,6.98,6.67,4.1,10.31,4.1z M8.65,10.61c-0.49,0.48-0.95,0.91-1.4,1.36c-0.37,0.38-0.37,0.81-0.01,1.2
	c0.15,0.16,0.32,0.32,0.48,0.48c0.41,0.4,0.82,0.39,1.23-0.01c0.45-0.44,0.9-0.88,1.36-1.32c0.07,0.06,0.13,0.1,0.17,0.14
	c0.39,0.39,0.78,0.79,1.18,1.18c0.41,0.41,0.82,0.41,1.24,0.01c0.17-0.16,0.34-0.33,0.5-0.5c0.34-0.37,0.34-0.78,0-1.15
	c-0.19-0.2-0.39-0.4-0.58-0.6c-0.26-0.27-0.52-0.53-0.77-0.79c0.47-0.47,0.9-0.91,1.34-1.36c0.39-0.39,0.39-0.82,0.01-1.21
	c-0.16-0.16-0.31-0.32-0.47-0.48c-0.41-0.41-0.85-0.41-1.26,0c-0.43,0.44-0.85,0.9-1.29,1.35c-0.11-0.1-0.16-0.13-0.2-0.18
	C9.8,8.36,9.42,7.98,9.05,7.59c-0.46-0.47-0.9-0.48-1.36-0.01C7.57,7.7,7.45,7.82,7.33,7.94c-0.48,0.48-0.47,0.9,0.02,1.38
	C7.76,9.73,8.18,10.15,8.65,10.61z"/>
</svg>
