<?xml version="1.0" encoding="utf-8"?>
<!-- Generator: Adobe Illustrator 25.0.0, SVG Export Plug-In . SVG Version: 6.00 Build 0)  -->
<svg version="1.1" id="Capa_1" xmlns="http://www.w3.org/2000/svg" xmlns:xlink="http://www.w3.org/1999/xlink" x="0px" y="0px"
	 viewBox="0 0 20 20" style="enable-background:new 0 0 20 20;" xml:space="preserve">
<style type="text/css">
	.st0{fill:#3D4975;}
</style>
<g>
	<path class="st0" d="M5.31,11c0,1.03,0,2.04,0,3.06c3.13,0,6.25,0,9.39,0c0-1.02,0-2.03,0-3.06c0.05,0,0.08-0.01,0.11-0.01
		c0.52,0,1.05,0,1.57,0c0.1,0,0.12,0.03,0.12,0.13c0,1.26,0,2.52,0,3.78c0,0.59-0.38,0.97-0.97,0.97c-3.68,0-7.37,0-11.05,0
		c-0.48,0-0.82-0.24-0.94-0.68c-0.03-0.09-0.03-0.2-0.03-0.29c0-1.26,0-2.52,0-3.78c0-0.09,0.02-0.13,0.12-0.13
		c0.52,0.01,1.05,0,1.57,0C5.23,10.99,5.26,11,5.31,11z"/>
	<path class="st0" d="M8.74,8.9c0-0.05,0-0.09,0-0.13c0-1.47,0-2.94,0-4.4c0-0.14,0.05-0.2,0.19-0.22c0.05-0.01,0.1-0.01,0.14-0.01
		c0.65,0,1.29,0,1.94,0c0.23,0,0.29,0.06,0.29,0.29c0,1.41,0,2.81,0,4.22c0,0.05,0,0.09,0,0.15c0.05,0,0.08,0.01,0.12,0.01
		c0.39,0,0.78,0,1.17,0c0.07,0,0.15,0.01,0.22,0.03c0.09,0.02,0.12,0.09,0.09,0.18c-0.02,0.04-0.04,0.09-0.07,0.12
		c-0.76,0.99-1.52,1.98-2.29,2.96c-0.07,0.1-0.15,0.19-0.23,0.28c-0.16,0.18-0.33,0.18-0.48,0c-0.21-0.24-0.41-0.49-0.61-0.74
		c-0.67-0.8-1.34-1.61-2-2.42c-0.05-0.07-0.12-0.17-0.1-0.24C7.13,8.87,7.26,8.9,7.35,8.9c0.42,0,0.84,0,1.26,0
		C8.64,8.9,8.69,8.9,8.74,8.9z"/>
</g>
</svg>
